<svg width="20" height="20" viewBox="0 0 20 20" fill="none" xmlns="http://www.w3.org/2000/svg">
<path fill-rule="evenodd" clip-rule="evenodd" d="M9.7222 4.16669C8.95514 4.16669 8.33331 4.78851 8.33331 5.55558C8.33331 6.32264 8.95514 6.94446 9.7222 6.94446C10.4893 6.94446 11.1111 6.32264 11.1111 5.55558C11.1111 4.78851 10.4893 4.16669 9.7222 4.16669ZM9.7222 8.6112C8.95514 8.6112 8.33331 9.23303 8.33331 10.0001C8.33331 10.7672 8.95514 11.389 9.7222 11.389C10.4893 11.389 11.1111 10.7672 11.1111 10.0001C11.1111 9.23303 10.4893 8.6112 9.7222 8.6112ZM8.33331 14.8611C8.33331 14.0941 8.95514 13.4722 9.7222 13.4722C10.4893 13.4722 11.1111 14.0941 11.1111 14.8611C11.1111 15.6282 10.4893 16.25 9.7222 16.25C8.95514 16.25 8.33331 15.6282 8.33331 14.8611Z" fill="#1D2433" fill-opacity="0.75"/>
</svg>
